<mxfile host="app.diagrams.net" agent="Mozilla/5.0 (Windows NT 10.0; Win64; x64) AppleWebKit/537.36 (KHTML, like Gecko) Chrome/127.0.0.0 Safari/537.36" version="24.7.7">
  <diagram id="f106602c-feb2-e66a-4537-3a34d633f6aa" name="Page-1">
    <mxGraphModel dx="1563" dy="1553" grid="1" gridSize="10" guides="1" tooltips="1" connect="1" arrows="1" fold="1" page="1" pageScale="1" pageWidth="1169" pageHeight="827" background="none" math="0" shadow="0">
      <root>
        <mxCell id="0" />
        <mxCell id="1" parent="0" />
        <mxCell id="xzdhvyfGosut9zscTU-Z-1" value="Configurable Polling intervals" style="shape=process;whiteSpace=wrap;html=1;backgroundOutline=1;" vertex="1" parent="1">
          <mxGeometry x="300" y="125" width="120" height="90" as="geometry" />
        </mxCell>
        <mxCell id="xzdhvyfGosut9zscTU-Z-5" style="edgeStyle=orthogonalEdgeStyle;rounded=0;orthogonalLoop=1;jettySize=auto;html=1;entryX=0;entryY=0.5;entryDx=0;entryDy=0;" edge="1" parent="1" source="xzdhvyfGosut9zscTU-Z-2" target="xzdhvyfGosut9zscTU-Z-1">
          <mxGeometry relative="1" as="geometry" />
        </mxCell>
        <mxCell id="xzdhvyfGosut9zscTU-Z-2" value="" style="dashed=0;outlineConnect=0;html=1;align=center;labelPosition=center;verticalLabelPosition=bottom;verticalAlign=top;shape=mxgraph.webicons.mongodb;gradientColor=#DFDEDE" vertex="1" parent="1">
          <mxGeometry x="100" y="118.8" width="102.4" height="102.4" as="geometry" />
        </mxCell>
        <mxCell id="xzdhvyfGosut9zscTU-Z-3" value="&lt;b&gt;Staging&lt;/b&gt;" style="text;html=1;align=center;verticalAlign=middle;whiteSpace=wrap;rounded=0;" vertex="1" parent="1">
          <mxGeometry x="121.19999999999999" y="80" width="60" height="30" as="geometry" />
        </mxCell>
        <mxCell id="xzdhvyfGosut9zscTU-Z-4" value="&lt;b&gt;Background Worker Serice&lt;/b&gt;" style="text;html=1;align=center;verticalAlign=middle;whiteSpace=wrap;rounded=0;" vertex="1" parent="1">
          <mxGeometry x="300" y="80" width="120" height="30" as="geometry" />
        </mxCell>
        <mxCell id="xzdhvyfGosut9zscTU-Z-15" style="edgeStyle=orthogonalEdgeStyle;rounded=0;orthogonalLoop=1;jettySize=auto;html=1;" edge="1" parent="1" source="xzdhvyfGosut9zscTU-Z-6">
          <mxGeometry relative="1" as="geometry">
            <mxPoint x="710" y="170" as="targetPoint" />
          </mxGeometry>
        </mxCell>
        <mxCell id="xzdhvyfGosut9zscTU-Z-6" value="" style="sketch=0;points=[[0,0,0],[0.25,0,0],[0.5,0,0],[0.75,0,0],[1,0,0],[0,1,0],[0.25,1,0],[0.5,1,0],[0.75,1,0],[1,1,0],[0,0.25,0],[0,0.5,0],[0,0.75,0],[1,0.25,0],[1,0.5,0],[1,0.75,0]];outlineConnect=0;fontColor=#232F3E;fillColor=#E7157B;strokeColor=#ffffff;dashed=0;verticalLabelPosition=bottom;verticalAlign=top;align=center;html=1;fontSize=12;fontStyle=0;aspect=fixed;shape=mxgraph.aws4.resourceIcon;resIcon=mxgraph.aws4.mq;" vertex="1" parent="1">
          <mxGeometry x="540" y="131" width="78" height="78" as="geometry" />
        </mxCell>
        <mxCell id="xzdhvyfGosut9zscTU-Z-10" style="edgeStyle=orthogonalEdgeStyle;rounded=0;orthogonalLoop=1;jettySize=auto;html=1;entryX=0;entryY=0.5;entryDx=0;entryDy=0;entryPerimeter=0;" edge="1" parent="1" source="xzdhvyfGosut9zscTU-Z-1" target="xzdhvyfGosut9zscTU-Z-6">
          <mxGeometry relative="1" as="geometry" />
        </mxCell>
        <mxCell id="xzdhvyfGosut9zscTU-Z-11" value="&lt;b&gt;RabbitMQ&lt;/b&gt;" style="text;html=1;align=center;verticalAlign=middle;whiteSpace=wrap;rounded=0;" vertex="1" parent="1">
          <mxGeometry x="510" y="80" width="120" height="30" as="geometry" />
        </mxCell>
        <mxCell id="xzdhvyfGosut9zscTU-Z-32" style="edgeStyle=orthogonalEdgeStyle;rounded=0;orthogonalLoop=1;jettySize=auto;html=1;" edge="1" parent="1" source="xzdhvyfGosut9zscTU-Z-14" target="xzdhvyfGosut9zscTU-Z-27">
          <mxGeometry relative="1" as="geometry" />
        </mxCell>
        <mxCell id="xzdhvyfGosut9zscTU-Z-14" value="Api Gateway" style="swimlane;whiteSpace=wrap;html=1;" vertex="1" parent="1">
          <mxGeometry x="710" y="70" width="410" height="200" as="geometry" />
        </mxCell>
        <mxCell id="xzdhvyfGosut9zscTU-Z-16" value="" style="aspect=fixed;sketch=0;html=1;dashed=0;whitespace=wrap;verticalLabelPosition=bottom;verticalAlign=top;fillColor=#2875E2;strokeColor=#ffffff;points=[[0.005,0.63,0],[0.1,0.2,0],[0.9,0.2,0],[0.5,0,0],[0.995,0.63,0],[0.72,0.99,0],[0.5,1,0],[0.28,0.99,0]];shape=mxgraph.kubernetes.icon2;prIcon=api" vertex="1" parent="xzdhvyfGosut9zscTU-Z-14">
          <mxGeometry x="120" y="100" width="60" height="57.6" as="geometry" />
        </mxCell>
        <mxCell id="xzdhvyfGosut9zscTU-Z-17" value="" style="aspect=fixed;sketch=0;html=1;dashed=0;whitespace=wrap;verticalLabelPosition=bottom;verticalAlign=top;fillColor=#2875E2;strokeColor=#ffffff;points=[[0.005,0.63,0],[0.1,0.2,0],[0.9,0.2,0],[0.5,0,0],[0.995,0.63,0],[0.72,0.99,0],[0.5,1,0],[0.28,0.99,0]];shape=mxgraph.kubernetes.icon2;prIcon=api" vertex="1" parent="xzdhvyfGosut9zscTU-Z-14">
          <mxGeometry x="230" y="101.39999999999999" width="60" height="57.6" as="geometry" />
        </mxCell>
        <mxCell id="xzdhvyfGosut9zscTU-Z-18" value="" style="aspect=fixed;sketch=0;html=1;dashed=0;whitespace=wrap;verticalLabelPosition=bottom;verticalAlign=top;fillColor=#2875E2;strokeColor=#ffffff;points=[[0.005,0.63,0],[0.1,0.2,0],[0.9,0.2,0],[0.5,0,0],[0.995,0.63,0],[0.72,0.99,0],[0.5,1,0],[0.28,0.99,0]];shape=mxgraph.kubernetes.icon2;prIcon=api" vertex="1" parent="xzdhvyfGosut9zscTU-Z-14">
          <mxGeometry x="20" y="100" width="61.46" height="59" as="geometry" />
        </mxCell>
        <mxCell id="xzdhvyfGosut9zscTU-Z-20" value="Digital Certificate Generator" style="text;html=1;align=center;verticalAlign=middle;whiteSpace=wrap;rounded=0;" vertex="1" parent="xzdhvyfGosut9zscTU-Z-14">
          <mxGeometry x="20.73" y="40" width="60" height="51" as="geometry" />
        </mxCell>
        <mxCell id="xzdhvyfGosut9zscTU-Z-21" value="Digital Badge Creator" style="text;html=1;align=center;verticalAlign=middle;whiteSpace=wrap;rounded=0;" vertex="1" parent="xzdhvyfGosut9zscTU-Z-14">
          <mxGeometry x="110" y="40" width="80" height="51" as="geometry" />
        </mxCell>
        <mxCell id="xzdhvyfGosut9zscTU-Z-22" value="Scanned Certificate Indexing" style="text;html=1;align=center;verticalAlign=middle;whiteSpace=wrap;rounded=0;" vertex="1" parent="xzdhvyfGosut9zscTU-Z-14">
          <mxGeometry x="210" y="34.8" width="100" height="51" as="geometry" />
        </mxCell>
        <mxCell id="xzdhvyfGosut9zscTU-Z-28" value="" style="aspect=fixed;sketch=0;html=1;dashed=0;whitespace=wrap;verticalLabelPosition=bottom;verticalAlign=top;fillColor=#2875E2;strokeColor=#ffffff;points=[[0.005,0.63,0],[0.1,0.2,0],[0.9,0.2,0],[0.5,0,0],[0.995,0.63,0],[0.72,0.99,0],[0.5,1,0],[0.28,0.99,0]];shape=mxgraph.kubernetes.icon2;prIcon=api" vertex="1" parent="xzdhvyfGosut9zscTU-Z-14">
          <mxGeometry x="320" y="100.69999999999999" width="60" height="57.6" as="geometry" />
        </mxCell>
        <mxCell id="xzdhvyfGosut9zscTU-Z-26" value="Emailing Service" style="text;html=1;align=center;verticalAlign=middle;whiteSpace=wrap;rounded=0;" vertex="1" parent="xzdhvyfGosut9zscTU-Z-14">
          <mxGeometry x="310" y="40" width="80" height="51" as="geometry" />
        </mxCell>
        <mxCell id="xzdhvyfGosut9zscTU-Z-27" value="" style="sketch=0;pointerEvents=1;shadow=0;dashed=0;html=1;strokeColor=none;fillColor=#DF8C42;labelPosition=center;verticalLabelPosition=bottom;verticalAlign=top;align=center;outlineConnect=0;shape=mxgraph.veeam2.azure_blob;" vertex="1" parent="1">
          <mxGeometry x="1220" y="136.20000000000002" width="122" height="67.6" as="geometry" />
        </mxCell>
        <mxCell id="xzdhvyfGosut9zscTU-Z-33" value="Azure blob Storage" style="text;html=1;align=center;verticalAlign=middle;whiteSpace=wrap;rounded=0;" vertex="1" parent="1">
          <mxGeometry x="1220" y="74" width="80" height="51" as="geometry" />
        </mxCell>
        <mxCell id="xzdhvyfGosut9zscTU-Z-35" value="Blockchain Rest API" style="swimlane;whiteSpace=wrap;html=1;" vertex="1" parent="1">
          <mxGeometry x="720" y="330" width="420" height="200" as="geometry" />
        </mxCell>
        <mxCell id="xzdhvyfGosut9zscTU-Z-34" value="Blockchain" style="image;aspect=fixed;html=1;points=[];align=center;fontSize=12;image=img/lib/azure2/blockchain/Azure_Blockchain_Service.svg;" vertex="1" parent="xzdhvyfGosut9zscTU-Z-35">
          <mxGeometry x="170" y="90" width="68" height="68" as="geometry" />
        </mxCell>
        <mxCell id="xzdhvyfGosut9zscTU-Z-44" style="edgeStyle=orthogonalEdgeStyle;rounded=0;orthogonalLoop=1;jettySize=auto;html=1;entryX=0.464;entryY=0.005;entryDx=0;entryDy=0;entryPerimeter=0;" edge="1" parent="1" source="xzdhvyfGosut9zscTU-Z-14" target="xzdhvyfGosut9zscTU-Z-35">
          <mxGeometry relative="1" as="geometry" />
        </mxCell>
        <mxCell id="xzdhvyfGosut9zscTU-Z-51" style="edgeStyle=orthogonalEdgeStyle;rounded=0;orthogonalLoop=1;jettySize=auto;html=1;entryX=0.5;entryY=0;entryDx=0;entryDy=0;" edge="1" parent="1" source="xzdhvyfGosut9zscTU-Z-45" target="xzdhvyfGosut9zscTU-Z-14">
          <mxGeometry relative="1" as="geometry" />
        </mxCell>
        <mxCell id="xzdhvyfGosut9zscTU-Z-45" value="Front End&amp;nbsp;" style="swimlane;whiteSpace=wrap;html=1;" vertex="1" parent="1">
          <mxGeometry x="710" y="-180" width="410" height="200" as="geometry" />
        </mxCell>
        <mxCell id="xzdhvyfGosut9zscTU-Z-47" value="" style="shape=mxgraph.cisco.misc.front_end_processor;html=1;pointerEvents=1;dashed=0;fillColor=#036897;strokeColor=#ffffff;strokeWidth=2;verticalLabelPosition=bottom;verticalAlign=top;align=center;outlineConnect=0;" vertex="1" parent="xzdhvyfGosut9zscTU-Z-45">
          <mxGeometry x="90.00000000000003" y="74.5" width="42" height="51" as="geometry" />
        </mxCell>
        <mxCell id="xzdhvyfGosut9zscTU-Z-48" value="" style="shape=mxgraph.cisco.misc.front_end_processor;html=1;pointerEvents=1;dashed=0;fillColor=#036897;strokeColor=#ffffff;strokeWidth=2;verticalLabelPosition=bottom;verticalAlign=top;align=center;outlineConnect=0;" vertex="1" parent="xzdhvyfGosut9zscTU-Z-45">
          <mxGeometry x="240" y="74.5" width="42" height="51" as="geometry" />
        </mxCell>
        <mxCell id="xzdhvyfGosut9zscTU-Z-53" value="&lt;b&gt;&lt;font style=&quot;font-size: 24px;&quot;&gt;Technical Architecture&lt;/font&gt;&lt;/b&gt;" style="text;html=1;align=center;verticalAlign=middle;whiteSpace=wrap;rounded=0;" vertex="1" parent="1">
          <mxGeometry x="61.2" y="-160" width="338.8" height="80" as="geometry" />
        </mxCell>
      </root>
    </mxGraphModel>
  </diagram>
</mxfile>
